<svg height="28pt" viewBox="-19 -21 612.00258 612" width="28pt" xmlns="http://www.w3.org/2000/svg"><path d="m285.035156 17.40625c46.753906 0 93.597656 13.171875 135.460938 38.09375 30.789062 18.371094 57.941406 42.230469 80.121094 70.398438l-81.761719-2.695313c-4.804688-.121094-8.8125 3.652344-8.96875 8.457031-.160157 4.804688 3.585937 8.835938 8.390625 9.03125l99.300781 3.273438c2.613281-.039063 5.089844-1.183594 6.804687-3.152344 1.71875-1.972656 2.511719-4.582031 2.1875-7.179688l-3.238281-98c-.078125-3.140624-1.835937-5.996093-4.605469-7.484374-2.761718-1.484376-6.117187-1.378907-8.777343.289062-2.664063 1.667969-4.230469 4.632812-4.097657 7.769531l2.347657 71.238281c-22.351563-26.542968-48.96875-49.179687-78.757813-66.976562-44.566406-26.53125-94.503906-40.5585938-144.40625-40.5585938-80.289062 0-154.300781 33.1054688-208.410156 93.2226558-24.160156 26.964844-43.375 57.984376-56.753906 91.628907-12.996094 32.847656-19.871094 67.484375-19.871094 100.191406 0 4.828125 3.914062 8.746094 8.75 8.746094 4.832031 0 8.746094-3.917969 8.746094-8.746094 0-62.59375 26.96875-129.925781 72.140625-180.113281 50.738281-56.382813 120.128906-87.433594 195.398437-87.433594zm0 0"/><path d="m565.007812 276.203125c-4.828124 0-8.746093 3.914063-8.746093 8.75 0 62.585937-26.96875 129.921875-72.140625 180.113281-50.738282 56.375-120.140625 87.429688-195.40625 87.429688-46.738282 0-93.558594-13.167969-135.417969-38.074219-30.800781-18.371094-57.972656-42.238281-80.15625-70.421875l81.761719 2.695312c4.808594.125 8.8125-3.652343 8.96875-8.457031.160156-4.804687-3.589844-8.835937-8.386719-9.027343l-99.304687-3.273438c-2.414063-.085938-4.761719.84375-6.472657 2.558594-1.710937 1.707031-2.636719 4.050781-2.558593 6.472656l.011718.367188c0 .089843 0 .183593.007813.28125l3.253906 98.648437c.078125 3.140625 1.835937 6 4.601563 7.484375 2.769531 1.488281 6.117187 1.375 8.785156-.289062 2.660156-1.664063 4.226562-4.632813 4.097656-7.769532l-2.351562-71.238281c22.359374 26.558594 48.984374 49.203125 78.789062 67.003906 44.5625 26.519531 94.484375 40.535157 144.367188 40.535157 80.292968 0 154.304687-33.105469 208.410156-93.21875 24.164062-26.96875 43.375-57.988282 56.757812-91.628907 13-32.851562 19.875-67.488281 19.875-100.191406 0-4.828125-3.910156-8.746094-8.746094-8.75zm0 0"/><path d="m103.160156 377.433594c.027344 25.523437 20.714844 46.214844 46.242188 46.242187h274.949218c25.527344-.027343 46.210938-20.71875 46.242188-46.242187v-184.964844c0-.523438-.019531-1.035156-.039062-1.546875.082031-.882813.027343-1.777344-.15625-2.640625-2.191407-23.804688-22.144532-42.023438-46.046876-42.054688h-274.949218c-23.976563.03125-43.957032 18.359376-46.058594 42.238282-.175781.84375-.222656 1.710937-.144531 2.566406-.015625.480469-.039063.957031-.039063 1.4375zm46.242188 28.746094c-5.390625.003906-10.671875-1.519532-15.238282-4.390626l80.859376-82.703124c3.332031-3.460938 3.242187-8.957032-.191407-12.316407-3.429687-3.355469-8.933593-3.320312-12.316406.085938l-79.691406 81.507812c-1.429688-3.464843-2.167969-7.179687-2.167969-10.929687v-168.304688l138.003906 116.855469c16.300782 13.875 40.265625 13.863281 56.554688-.023437l137.882812-116.941407v168.414063c.003906 3.773437-.738281 7.507812-2.1875 10.996094l-80.1875-81.582032c-2.1875-2.25-5.414062-3.15625-8.449218-2.375-3.039063.777344-5.425782 3.125-6.257813 6.152344-.832031 3.023438.019531 6.257812 2.230469 8.484375l81.292968 82.714844c-4.550781 2.851562-9.8125 4.359375-15.1875 4.355469zm0-242.457032h274.949218c13.605469.015625 25.339844 9.554688 28.140626 22.867188l-148.59375 126.023437c-9.773438 8.335938-24.15625 8.34375-33.933594.015625l-148.722656-125.9375c2.757812-13.359375 14.515624-22.953125 28.160156-22.96875zm0 0"/></svg>