<?xml version="1.0" encoding="iso-8859-1"?>
<!-- Generator: Adobe Illustrator 19.0.0, SVG Export Plug-In . SVG Version: 6.00 Build 0)  -->
<svg version="1.1" id="Capa_1" width="30px" height="30px" xmlns="http://www.w3.org/2000/svg" xmlns:xlink="http://www.w3.org/1999/xlink" x="0px" y="0px"
	 viewBox="0 0 512.001 512.001" style="enable-background:new 0 0 512.001 512.001;" xml:space="preserve">
<g>
	<g>
		<path d="M410.532,56.358H336.59V14.978C336.59,6.706,329.883,0,321.611,0H190.39c-8.272,0-14.978,6.706-14.978,14.978v41.379
			h-73.942c-20.438,0-37.065,16.628-37.065,37.066v34.384c0,15.483,9.545,28.77,23.057,34.308l24.619,336
			c0.573,7.827,7.091,13.884,14.938,13.884h257.964c7.848,0,14.365-6.057,14.938-13.884l24.619-336
			c13.511-5.538,23.057-18.826,23.057-34.308V93.424C447.597,72.986,430.969,56.358,410.532,56.358z M205.368,29.957h101.265v26.401
			H205.368V29.957z M371.062,482.043H140.939L117.7,164.874h276.602L371.062,482.043z M417.64,127.808
			c0,3.92-3.189,7.109-7.109,7.109h-0.114H101.583h-0.114c-3.919,0-7.109-3.188-7.109-7.109V93.424c0-3.92,3.189-7.11,7.109-7.11
			h309.062c3.919,0,7.109,3.189,7.109,7.11V127.808z"/>
	</g>
</g>
<g>
	<g>
		<path d="M195.364,226.88c-0.413-8.262-7.46-14.625-15.707-14.212c-8.262,0.413-14.625,7.445-14.212,15.707l9.986,199.838
			c0.4,8.008,7.018,14.232,14.947,14.232c0.252,0,0.505-0.006,0.76-0.019c8.262-0.413,14.625-7.445,14.212-15.707L195.364,226.88z"
			/>
	</g>
</g>
<g>
	<g>
		<path d="M256,212.65c-8.272,0-14.978,6.706-14.978,14.978v199.838c0,8.272,6.706,14.978,14.978,14.978
			c8.272,0,14.978-6.706,14.978-14.978V227.628C270.978,219.356,264.272,212.65,256,212.65z"/>
	</g>
</g>
<g>
	<g>
		<path d="M332.344,212.668c-8.257-0.415-15.294,5.95-15.707,14.212l-9.986,199.838c-0.412,8.262,5.95,15.295,14.213,15.707
			c0.255,0.013,0.507,0.019,0.76,0.019c7.929,0,14.547-6.224,14.947-14.231l9.986-199.838
			C346.969,220.113,340.606,213.081,332.344,212.668z"/>
	</g>
</g>
<g>
</g>
<g>
</g>
<g>
</g>
<g>
</g>
<g>
</g>
<g>
</g>
<g>
</g>
<g>
</g>
<g>
</g>
<g>
</g>
<g>
</g>
<g>
</g>
<g>
</g>
<g>
</g>
<g>
</g>
</svg>
